ply
format ascii 1.0
element vertex 9
property double x
property double y
property double z
property uchar red
property uchar green
property uchar blue
end_header
9.4410290656905680 5.2689326648268162 12.1785311746928713 120 120 108
5.3223474215387583 3.0426159238513679 6.9144407992298236 114 116 103
6.8797906529411881 2.9758881961378827 8.0480998084138093 151 152 146
11.2582163186500210 5.1739497828465337 13.4541813647487807 130 132 119
2.5741030716681927 5.3882884558172082 9.8187765684751067 67 43 33
11.6151034074458241 5.3506458005881354 14.8889284051806960 159 160 155
12.5902102303534207 6.6414930202810334 17.4375679403215713 136 138 125
0.2512838690660727 0.1915955184428391 0.2945397747583761 0 255 0
-0.4850532493625311 0.4048201351466719 0.7858603001901835 0 255 0
