<?xml version="1.0" standalone="yes"?>
<!-- SVG graphic -->
<svg xmlns='http://www.w3.org/2000/svg' xmlns:xlink='http://www.w3.org/1999/xlink'
 version="1.1">
<rect x="0" y="0" width="6" height="200" stroke="black" stroke-width="1" fill="blue" tooltip="enable"><title>(0,6)</title></rect><rect x="6" y="66.6667" width="6" height="133.333" stroke="black" stroke-width="1" fill="blue" tooltip="enable"><title>(0.0172393,4)</title></rect><rect x="12" y="66.6667" width="6" height="133.333" stroke="black" stroke-width="1" fill="blue" tooltip="enable"><title>(0.0344787,4)</title></rect><rect x="18" y="200" width="6" height="0" stroke="black" stroke-width="1" fill="blue" tooltip="enable"><title>(0.051718,0)</title></rect><rect x="24" y="200" width="6" height="0" stroke="black" stroke-width="1" fill="blue" tooltip="enable"><title>(0.0689573,0)</title></rect><rect x="30" y="200" width="6" height="0" stroke="black" stroke-width="1" fill="blue" tooltip="enable"><title>(0.0861967,0)</title></rect><rect x="36" y="133.333" width="6" height="66.6667" stroke="black" stroke-width="1" fill="blue" tooltip="enable"><title>(0.103436,2)</title></rect><rect x="42" y="200" width="6" height="0" stroke="black" stroke-width="1" fill="blue" tooltip="enable"><title>(0.120675,0)</title></rect><rect x="48" y="200" width="6" height="0" stroke="black" stroke-width="1" fill="blue" tooltip="enable"><title>(0.137915,0)</title></rect><rect x="54" y="200" width="6" height="0" stroke="black" stroke-width="1" fill="blue" tooltip="enable"><title>(0.155154,0)</title></rect><rect x="60" y="133.333" width="6" height="66.6667" stroke="black" stroke-width="1" fill="blue" tooltip="enable"><title>(0.172393,2)</title></rect><rect x="66" y="200" width="6" height="0" stroke="black" stroke-width="1" fill="blue" tooltip="enable"><title>(0.189633,0)</title></rect><rect x="72" y="200" width="6" height="0" stroke="black" stroke-width="1" fill="blue" tooltip="enable"><title>(0.206872,0)</title></rect><rect x="78" y="200" width="6" height="0" stroke="black" stroke-width="1" fill="blue" tooltip="enable"><title>(0.224111,0)</title></rect><rect x="84" y="200" width="6" height="0" stroke="black" stroke-width="1" fill="blue" tooltip="enable"><title>(0.241351,0)</title></rect><rect x="90" y="200" width="6" height="0" stroke="black" stroke-width="1" fill="blue" tooltip="enable"><title>(0.25859,0)</title></rect><rect x="96" y="200" width="6" height="0" stroke="black" stroke-width="1" fill="blue" tooltip="enable"><title>(0.275829,0)</title></rect><rect x="102" y="200" width="6" height="0" stroke="black" stroke-width="1" fill="blue" tooltip="enable"><title>(0.293069,0)</title></rect><rect x="108" y="200" width="6" height="0" stroke="black" stroke-width="1" fill="blue" tooltip="enable"><title>(0.310308,0)</title></rect><rect x="114" y="200" width="6" height="0" stroke="black" stroke-width="1" fill="blue" tooltip="enable"><title>(0.327547,0)</title></rect><rect x="120" y="166.667" width="6" height="33.3333" stroke="black" stroke-width="1" fill="blue" tooltip="enable"><title>(0.344787,1)</title></rect><rect x="126" y="166.667" width="6" height="33.3333" stroke="black" stroke-width="1" fill="blue" tooltip="enable"><title>(0.362026,1)</title></rect><rect x="132" y="200" width="6" height="0" stroke="black" stroke-width="1" fill="blue" tooltip="enable"><title>(0.379265,0)</title></rect><rect x="138" y="200" width="6" height="0" stroke="black" stroke-width="1" fill="blue" tooltip="enable"><title>(0.396505,0)</title></rect><rect x="144" y="200" width="6" height="0" stroke="black" stroke-width="1" fill="blue" tooltip="enable"><title>(0.413744,0)</title></rect><rect x="150" y="200" width="6" height="0" stroke="black" stroke-width="1" fill="blue" tooltip="enable"><title>(0.430983,0)</title></rect><rect x="156" y="200" width="6" height="0" stroke="black" stroke-width="1" fill="blue" tooltip="enable"><title>(0.448223,0)</title></rect><rect x="162" y="200" width="6" height="0" stroke="black" stroke-width="1" fill="blue" tooltip="enable"><title>(0.465462,0)</title></rect><rect x="168" y="200" width="6" height="0" stroke="black" stroke-width="1" fill="blue" tooltip="enable"><title>(0.482701,0)</title></rect><rect x="174" y="200" width="6" height="0" stroke="black" stroke-width="1" fill="blue" tooltip="enable"><title>(0.499941,0)</title></rect><rect x="180" y="200" width="6" height="0" stroke="black" stroke-width="1" fill="blue" tooltip="enable"><title>(0.51718,0)</title></rect><rect x="186" y="200" width="6" height="0" stroke="black" stroke-width="1" fill="blue" tooltip="enable"><title>(0.534419,0)</title></rect><rect x="192" y="200" width="6" height="0" stroke="black" stroke-width="1" fill="blue" tooltip="enable"><title>(0.551659,0)</title></rect><rect x="198" y="166.667" width="6" height="33.3333" stroke="black" stroke-width="1" fill="blue" tooltip="enable"><title>(0.568898,1)</title></rect><rect x="204" y="166.667" width="6" height="33.3333" stroke="black" stroke-width="1" fill="blue" tooltip="enable"><title>(0.586137,1)</title></rect><rect x="210" y="200" width="6" height="0" stroke="black" stroke-width="1" fill="blue" tooltip="enable"><title>(0.603377,0)</title></rect><rect x="216" y="200" width="6" height="0" stroke="black" stroke-width="1" fill="blue" tooltip="enable"><title>(0.620616,0)</title></rect><rect x="222" y="200" width="6" height="0" stroke="black" stroke-width="1" fill="blue" tooltip="enable"><title>(0.637855,0)</title></rect><rect x="228" y="200" width="6" height="0" stroke="black" stroke-width="1" fill="blue" tooltip="enable"><title>(0.655095,0)</title></rect><rect x="234" y="200" width="6" height="0" stroke="black" stroke-width="1" fill="blue" tooltip="enable"><title>(0.672334,0)</title></rect><rect x="240" y="200" width="6" height="0" stroke="black" stroke-width="1" fill="blue" tooltip="enable"><title>(0.689573,0)</title></rect><rect x="246" y="200" width="6" height="0" stroke="black" stroke-width="1" fill="blue" tooltip="enable"><title>(0.706813,0)</title></rect><rect x="252" y="200" width="6" height="0" stroke="black" stroke-width="1" fill="blue" tooltip="enable"><title>(0.724052,0)</title></rect><rect x="258" y="200" width="6" height="0" stroke="black" stroke-width="1" fill="blue" tooltip="enable"><title>(0.741291,0)</title></rect><rect x="264" y="200" width="6" height="0" stroke="black" stroke-width="1" fill="blue" tooltip="enable"><title>(0.75853,0)</title></rect><rect x="270" y="200" width="6" height="0" stroke="black" stroke-width="1" fill="blue" tooltip="enable"><title>(0.77577,0)</title></rect><rect x="276" y="200" width="6" height="0" stroke="black" stroke-width="1" fill="blue" tooltip="enable"><title>(0.793009,0)</title></rect><rect x="282" y="200" width="6" height="0" stroke="black" stroke-width="1" fill="blue" tooltip="enable"><title>(0.810248,0)</title></rect><rect x="288" y="200" width="6" height="0" stroke="black" stroke-width="1" fill="blue" tooltip="enable"><title>(0.827488,0)</title></rect><rect x="294" y="200" width="6" height="0" stroke="black" stroke-width="1" fill="blue" tooltip="enable"><title>(0.844727,0)</title></rect><rect x="300" y="200" width="6" height="0" stroke="black" stroke-width="1" fill="blue" tooltip="enable"><title>(0.861966,0)</title></rect><rect x="306" y="200" width="6" height="0" stroke="black" stroke-width="1" fill="blue" tooltip="enable"><title>(0.879206,0)</title></rect><rect x="312" y="200" width="6" height="0" stroke="black" stroke-width="1" fill="blue" tooltip="enable"><title>(0.896445,0)</title></rect><rect x="318" y="166.667" width="6" height="33.3333" stroke="black" stroke-width="1" fill="blue" tooltip="enable"><title>(0.913684,1)</title></rect><rect x="324" y="200" width="6" height="0" stroke="black" stroke-width="1" fill="blue" tooltip="enable"><title>(0.930924,0)</title></rect><rect x="330" y="200" width="6" height="0" stroke="black" stroke-width="1" fill="blue" tooltip="enable"><title>(0.948163,0)</title></rect><rect x="336" y="166.667" width="6" height="33.3333" stroke="black" stroke-width="1" fill="blue" tooltip="enable"><title>(0.965402,1)</title></rect><rect x="342" y="200" width="6" height="0" stroke="black" stroke-width="1" fill="blue" tooltip="enable"><title>(0.982642,0)</title></rect><rect x="348" y="200" width="6" height="0" stroke="black" stroke-width="1" fill="blue" tooltip="enable"><title>(0.999881,0)</title></rect><rect x="354" y="200" width="6" height="0" stroke="black" stroke-width="1" fill="blue" tooltip="enable"><title>(1.01712,0)</title></rect><rect x="360" y="200" width="6" height="0" stroke="black" stroke-width="1" fill="blue" tooltip="enable"><title>(1.03436,0)</title></rect><rect x="366" y="200" width="6" height="0" stroke="black" stroke-width="1" fill="blue" tooltip="enable"><title>(1.0516,0)</title></rect><rect x="372" y="200" width="6" height="0" stroke="black" stroke-width="1" fill="blue" tooltip="enable"><title>(1.06884,0)</title></rect><rect x="378" y="200" width="6" height="0" stroke="black" stroke-width="1" fill="blue" tooltip="enable"><title>(1.08608,0)</title></rect><rect x="384" y="200" width="6" height="0" stroke="black" stroke-width="1" fill="blue" tooltip="enable"><title>(1.10332,0)</title></rect><rect x="390" y="200" width="6" height="0" stroke="black" stroke-width="1" fill="blue" tooltip="enable"><title>(1.12056,0)</title></rect><rect x="396" y="200" width="6" height="0" stroke="black" stroke-width="1" fill="blue" tooltip="enable"><title>(1.1378,0)</title></rect><rect x="402" y="200" width="6" height="0" stroke="black" stroke-width="1" fill="blue" tooltip="enable"><title>(1.15504,0)</title></rect><rect x="408" y="200" width="6" height="0" stroke="black" stroke-width="1" fill="blue" tooltip="enable"><title>(1.17227,0)</title></rect><rect x="414" y="166.667" width="6" height="33.3333" stroke="black" stroke-width="1" fill="blue" tooltip="enable"><title>(1.18951,1)</title></rect><rect x="420" y="166.667" width="6" height="33.3333" stroke="black" stroke-width="1" fill="blue" tooltip="enable"><title>(1.20675,1)</title></rect><rect x="426" y="200" width="6" height="0" stroke="black" stroke-width="1" fill="blue" tooltip="enable"><title>(1.22399,0)</title></rect><rect x="432" y="200" width="6" height="0" stroke="black" stroke-width="1" fill="blue" tooltip="enable"><title>(1.24123,0)</title></rect><rect x="438" y="200" width="6" height="0" stroke="black" stroke-width="1" fill="blue" tooltip="enable"><title>(1.25847,0)</title></rect><rect x="444" y="200" width="6" height="0" stroke="black" stroke-width="1" fill="blue" tooltip="enable"><title>(1.27571,0)</title></rect><rect x="450" y="200" width="6" height="0" stroke="black" stroke-width="1" fill="blue" tooltip="enable"><title>(1.29295,0)</title></rect><rect x="456" y="200" width="6" height="0" stroke="black" stroke-width="1" fill="blue" tooltip="enable"><title>(1.31019,0)</title></rect><rect x="462" y="200" width="6" height="0" stroke="black" stroke-width="1" fill="blue" tooltip="enable"><title>(1.32743,0)</title></rect><rect x="468" y="200" width="6" height="0" stroke="black" stroke-width="1" fill="blue" tooltip="enable"><title>(1.34467,0)</title></rect><rect x="474" y="200" width="6" height="0" stroke="black" stroke-width="1" fill="blue" tooltip="enable"><title>(1.36191,0)</title></rect><rect x="480" y="200" width="6" height="0" stroke="black" stroke-width="1" fill="blue" tooltip="enable"><title>(1.37915,0)</title></rect><rect x="486" y="200" width="6" height="0" stroke="black" stroke-width="1" fill="blue" tooltip="enable"><title>(1.39639,0)</title></rect><rect x="492" y="200" width="6" height="0" stroke="black" stroke-width="1" fill="blue" tooltip="enable"><title>(1.41363,0)</title></rect><rect x="498" y="200" width="6" height="0" stroke="black" stroke-width="1" fill="blue" tooltip="enable"><title>(1.43086,0)</title></rect><rect x="504" y="200" width="6" height="0" stroke="black" stroke-width="1" fill="blue" tooltip="enable"><title>(1.4481,0)</title></rect><rect x="510" y="200" width="6" height="0" stroke="black" stroke-width="1" fill="blue" tooltip="enable"><title>(1.46534,0)</title></rect><rect x="516" y="200" width="6" height="0" stroke="black" stroke-width="1" fill="blue" tooltip="enable"><title>(1.48258,0)</title></rect><rect x="522" y="200" width="6" height="0" stroke="black" stroke-width="1" fill="blue" tooltip="enable"><title>(1.49982,0)</title></rect><rect x="528" y="200" width="6" height="0" stroke="black" stroke-width="1" fill="blue" tooltip="enable"><title>(1.51706,0)</title></rect><rect x="534" y="200" width="6" height="0" stroke="black" stroke-width="1" fill="blue" tooltip="enable"><title>(1.5343,0)</title></rect><rect x="540" y="200" width="6" height="0" stroke="black" stroke-width="1" fill="blue" tooltip="enable"><title>(1.55154,0)</title></rect><rect x="546" y="200" width="6" height="0" stroke="black" stroke-width="1" fill="blue" tooltip="enable"><title>(1.56878,0)</title></rect><rect x="552" y="200" width="6" height="0" stroke="black" stroke-width="1" fill="blue" tooltip="enable"><title>(1.58602,0)</title></rect><rect x="558" y="200" width="6" height="0" stroke="black" stroke-width="1" fill="blue" tooltip="enable"><title>(1.60326,0)</title></rect><rect x="564" y="200" width="6" height="0" stroke="black" stroke-width="1" fill="blue" tooltip="enable"><title>(1.6205,0)</title></rect><rect x="570" y="200" width="6" height="0" stroke="black" stroke-width="1" fill="blue" tooltip="enable"><title>(1.63774,0)</title></rect><rect x="576" y="200" width="6" height="0" stroke="black" stroke-width="1" fill="blue" tooltip="enable"><title>(1.65498,0)</title></rect><rect x="582" y="200" width="6" height="0" stroke="black" stroke-width="1" fill="blue" tooltip="enable"><title>(1.67221,0)</title></rect><rect x="588" y="166.667" width="6" height="33.3333" stroke="black" stroke-width="1" fill="blue" tooltip="enable"><title>(1.68945,1)</title></rect><rect x="594" y="200" width="6" height="0" stroke="black" stroke-width="1" fill="blue" tooltip="enable"><title>(1.70669,0)</title></rect><text x="30" y="240" font-size="20" fill="black">0</text>
<text x="600" y="240" font-size="20" fill="black">1.72393</text>
<polyline points="0,220,600,220" stroke="black" stroke-width="1" fill="none"/>
<text x="720" y="20" font-size="20" fill="black">6</text>
<text x="720" y="200" font-size="20" fill="black">0</text>
<polyline points="660,0,660,200" stroke="black" stroke-width="1" fill="none"/>
</svg>